<?xml version="1.0" encoding="utf-8"?>
<!-- Generator: Adobe Illustrator 16.0.0, SVG Export Plug-In . SVG Version: 6.00 Build 0)  -->
<!DOCTYPE svg PUBLIC "-//W3C//DTD SVG 1.1//EN" "http://www.w3.org/Graphics/SVG/1.1/DTD/svg11.dtd">
<svg version="1.1" id="Layer_1" xmlns="http://www.w3.org/2000/svg" xmlns:xlink="http://www.w3.org/1999/xlink" x="0px" y="0px"
	 width="512px" height="512px" viewBox="0 0 512 512" enable-background="new 0 0 512 512" xml:space="preserve">
<circle cx="341.892" cy="290.425" r="91.279"/>
<path d="M421.217,155.646l-19.382-37.608c0,0-13.972-31.037-31.255-31.037h-57.376c-17.283,0-31.295,31.371-31.295,31.371
	L262.649,156H228v-20h-78v20H73.271c-17.284,0-25.558,5.925-31.296,30.962c-5.737,25.036-12.518,51.993-10.432,104.769
	c2.086,52.775,3.129,76.215,10.432,102.816C49.277,421.147,55.987,426,73.271,426H139v-65.159c0-5.186,4.12-8.841,9.305-8.841h0.075
	c5.185,0,9.62,3.655,9.62,8.841V426h291.862C467.146,426,481,411.506,481,394.223V217.924
	C481,191.37,460.598,159.054,421.217,155.646z M206.799,217.924c-10.37,0-18.777-8.407-18.777-18.777
	c0-10.371,8.407-18.777,18.777-18.777s18.777,8.407,18.777,18.777C225.576,209.517,217.169,217.924,206.799,217.924z
	 M341.37,404.654c-62.799,0-113.708-50.908-113.708-113.707c0-62.799,50.909-113.708,113.708-113.708
	c62.8,0,113.708,50.909,113.708,113.708C455.078,353.746,404.17,404.654,341.37,404.654z"/>
</svg>
